<?xml version="1.0" encoding="UTF-8"?>
<svg width="24px" height="24px" viewBox="0 0 24 24" version="1.1" xmlns="http://www.w3.org/2000/svg" xmlns:xlink="http://www.w3.org/1999/xlink">
    <!-- Generator: Sketch 52.3 (67297) - http://www.bohemiancoding.com/sketch -->
    <title>Artboard</title>
    <desc>Created with Sketch.</desc>
    <g id="Artboard" stroke="none" stroke-width="1" fill="none" fill-rule="evenodd">
        <path d="M23.5565144,23.557251 C22.9662008,24.147583 22.0086921,24.147583 21.417378,23.557251 L16.7789138,18.9186417 C15.0269831,20.2273779 12.8608323,21.0108186 10.5055811,21.0108186 C4.70349873,21.0108186 0,16.3081733 0,10.5059096 C0,4.7036458 4.70349873,-2.04281037e-13 10.5055811,-2.04281037e-13 C16.3076634,-2.04281037e-13 21.0111622,4.7036458 21.0111622,10.5059096 C21.0111622,12.8602339 20.2267455,15.0274529 18.9180502,16.7794384 L23.5565144,21.4180477 C24.1478285,22.0083797 24.1478285,22.9659183 23.5565144,23.557251 L23.5565144,23.557251 Z M10.5055811,3.00168845 C6.36137948,3.00168845 3.0015946,6.36157839 3.0015946,10.5059096 C3.0015946,14.6492402 6.36137948,18.0101307 10.5055811,18.0101307 C14.6497827,18.0101307 18.0095676,14.6492402 18.0095676,10.5059096 C18.0095676,6.36157839 14.6497827,3.00168845 10.5055811,3.00168845 L10.5055811,3.00168845 Z" id="Search-Icon" fill="#3FC6FF"></path>
    </g>
</svg>